<svg width="1066" height="156" viewBox="0 0 1066 156" fill="none" xmlns="http://www.w3.org/2000/svg">
<g clip-path="url(#clip0_134_1456)">
<path d="M303.891 4.30663C317.507 3.3821 334.933 4.47333 348.97 4.08789C361.439 4.44201 374.252 3.48595 386.683 4.36042C405.861 5.70949 422.006 18.768 428.804 36.0174C433.841 48.6375 433.555 62.7565 428.012 75.1632C421.898 89.1741 411.665 97.2049 397.816 102.648C407.413 118.898 418.507 136.603 427.476 152.929L404.748 152.984C404.259 153.005 402.19 153.048 401.91 152.607C392.084 137.087 383.251 120.747 373.422 105.237C356.867 104.44 334.809 105.095 317.776 105.172L317.78 152.965L295.523 152.966L295.509 61.0291C295.499 48.6921 294.775 26.1767 295.617 14.4285C295.732 12.9005 296.132 11.4074 296.795 10.0259C298.324 6.7743 300.663 5.47658 303.891 4.30663ZM317.823 84.8747L359.508 84.9735C376.357 84.9922 389.909 87.7389 403.346 75.587C420.124 58.0557 411.268 30.0425 387.957 25.1638C380.966 23.7005 368.808 24.3604 361.435 24.378L317.846 24.4256L317.823 84.8747Z" fill="white"/>
<path d="M487.486 1.57465C489.312 1.30328 491.173 1.40242 492.96 1.86615C495.053 2.39092 498.052 4.09456 499.18 5.81851C505.374 15.2895 511.468 25.9534 517.267 35.6301L557.701 103.153C577.888 71.0768 596.493 36.325 617.293 4.53675C618.49 2.70687 622.773 1.47897 624.964 1.47298C628.139 1.47611 631.183 2.73408 633.436 4.97224C638.287 9.83816 636.939 20.9515 636.934 27.6793L636.913 55.8954V152.968L614.509 152.963L614.525 73.0601L614.598 44.1634C610.455 50.1845 604.923 60.5286 601.171 67.1524L578.445 107.034C574.818 113.317 571.195 119.938 567.157 125.925C562.833 132.332 553.559 132.928 548.938 126.415C543.114 118.201 538.342 109.483 533.31 100.793L501.031 43.7374C501.591 79.7005 501.104 116.911 501.106 152.973L478.606 152.977C478.947 135.346 477.151 14.6411 479.662 8.20224C481.05 4.64326 484.175 3.0195 487.486 1.57465Z" fill="white"/>
<path d="M725.538 3.11773C725.845 3.10609 726.152 3.09782 726.459 3.09294C741.061 2.92755 755.976 3.03249 770.626 3.04153C782.902 3.4339 795.252 1.9871 807.362 4.58546C837.394 11.0297 848.687 47.2756 827.496 69.3815C814.887 82.538 798.884 82.0394 782.038 82.1725L823.859 128.56C829.781 135.101 841.094 146.814 845.919 153.379C843.166 153.449 834.173 154.142 832.352 152.549C829.718 148.806 814.996 132.967 811.176 128.699C797.458 113.082 783.615 97.5775 769.637 82.1886C758.271 81.9452 746.292 82.1122 734.9 82.1886L734.874 153.45L725.626 153.39C724.934 138.318 725.533 118.094 725.527 102.733L725.538 3.11773ZM820.122 63.9064C826.804 56.5786 829.266 50.84 828.818 40.936C827.678 15.6658 804.754 10.9715 784.203 11.7696C771.214 12.2741 757.439 11.4173 744.361 11.8279C741.327 11.8523 737.871 11.9905 734.905 11.819L734.9 73.3044L774.253 73.3595C789.668 73.3689 807.877 75.2206 820.122 63.9064Z" fill="white"/>
<path d="M188.684 4.17374C196.061 3.96354 199.779 6.25356 202.668 13.273C204.765 18.367 206.632 23.576 208.591 28.7266C212.272 38.3601 216.046 47.9578 219.914 57.5182C232.968 89.3989 246.204 121.205 259.62 152.935L237.11 152.993C235.365 149.857 229.563 135.015 227.859 130.961C216.882 130.755 205.391 130.917 194.373 130.906C181.188 130.89 167.544 130.7 154.398 131.062C151.553 138.353 148.342 145.744 145.294 152.975L122.905 152.957C127.007 141.714 132.902 128.647 137.626 117.449C145.139 99.6637 152.52 81.823 159.771 63.9293C164.4 52.6885 168.909 41.3993 173.299 30.063C175.516 24.3484 177.651 18.5543 179.996 12.8872C181.904 8.2763 183.792 5.67142 188.684 4.17374ZM162.157 112.777L192.291 112.767L220.476 112.798C218.918 108.533 191.688 41.8729 191.261 41.4775C187.843 47.9528 181.242 65.157 178.371 72.565C173.548 85.008 166.401 100.498 162.157 112.777Z" fill="white"/>
<path d="M870.612 3.1057L879.959 3.0835L879.969 153.432L870.664 153.386C870.258 136.743 870.607 118.475 870.607 101.746L870.612 3.1057Z" fill="white"/>
<path d="M1065.8 86.1087C1062.08 101.315 1062.3 107.433 1053.24 121.21C1016.65 176.841 930.631 162.087 915.529 96.4791C904.2 47.2588 939.249 0.236144 990.739 0.660566C1023.07 0.927061 1052.07 22.5853 1061.87 53.1797C1063.71 58.7276 1064.62 65.0981 1065.8 70.8571V86.1087ZM994.199 145.936C1031.56 143.364 1059.78 111.048 1057.26 73.7161C1054.74 36.3836 1022.45 8.13951 985.082 10.5957C947.633 13.0574 919.292 45.4158 921.81 82.8296C924.334 120.244 956.761 148.513 994.199 145.936Z" fill="white"/>
<path d="M0 14.7142C1.83389 7.93416 4.95596 4.30159 12.2265 4.18299C24.2737 3.98646 36.3277 4.06257 48.3785 4.06692L119.604 4.11303C119.532 10.9141 119.527 17.7158 119.591 24.517C87.8861 24.0929 54.5633 24.2024 22.8038 24.4372C22.7938 41.6677 23.0899 59.8293 22.7498 76.9773L63.9665 76.9752C71.3001 76.9612 79.6839 76.5442 86.8494 77.4578C97.6448 78.8342 97.2992 96.3681 86.3072 96.9105C65.3878 97.9427 43.7245 96.9157 22.8172 97.3046L22.7651 152.952C15.6543 152.953 6.98545 153.182 0 152.896V14.7142Z" fill="white"/>
</g>
<defs>
<clipPath id="clip0_134_1456">
<rect width="1065.8" height="156" fill="white"/>
</clipPath>
</defs>
</svg>
