<svg width="32" height="32" viewBox="0 0 32 32" fill="none" xmlns="http://www.w3.org/2000/svg">
<path d="M9.35214 0.0415988C9.90149 -0.023161 11.2504 0.00679121 11.8362 0.00769258L16.4445 0.0144869L31.9071 0.0167764L31.904 16.1577C27.4569 16.2159 23.0017 16.1327 18.5529 16.1709C17.3506 16.1813 16.375 16.4063 16.2146 17.8102C16.1132 18.6978 16.1555 19.6122 16.1566 20.5067L16.1643 25.4233C16.1612 27.487 16.0978 29.8702 16.2542 31.9092C10.9251 31.8231 5.3656 31.9083 0.0157124 31.8996L0.0116222 17.1171L0.00864085 12.3502C0.00773948 9.79016 -0.175654 7.37048 1.19422 5.08149C3.08847 1.9161 5.69287 0.274637 9.35214 0.0415988Z" fill="black"/>
<path d="M23.8836 21.4704C26.5215 21.3989 29.2512 21.5042 31.9007 21.457C31.9366 24.9184 31.9044 28.4369 31.9044 31.9028L29.5137 31.9054L25.4694 31.9097C24.3448 31.9112 22.8435 32.1286 22.0393 31.3734C21.5176 30.8835 21.4591 30.2442 21.4653 29.5825C21.4861 27.3921 21.3218 25.1551 21.5734 22.9828C21.7174 21.7987 22.8494 21.5084 23.8836 21.4704Z" fill="black"/>
</svg>
