<svg width="37" height="20" viewBox="0 0 37 20" fill="none" xmlns="http://www.w3.org/2000/svg">
<path d="M25.8027 0.00762597C28.358 -0.033314 30.2643 0.165177 32.4012 1.73882C34.3623 3.18312 35.329 4.65052 36.0233 6.95922C34.9553 6.95062 33.8874 6.94802 32.8194 6.95132C32.2339 6.95232 31.4882 6.97392 30.9225 6.92102C30.494 6.35852 29.8705 5.71932 29.2578 5.34642C27.4812 4.26502 25.006 4.59442 23.6001 6.14212C22.5968 7.24662 21.6253 8.42262 20.6646 9.56642L16.3356 14.6643C14.1739 17.2491 13.8187 18.0355 10.3392 18.8367C5.82237 19.5826 0.2132 18.1291 0 12.6961L4.62839 12.6936C4.78537 13.3767 4.84183 13.5708 5.44396 14.0246C6.42397 14.763 8.87515 14.8859 9.88655 14.3378C10.7038 13.8949 12.1335 12.0031 12.8467 11.2016C14.2322 9.63742 15.6582 7.89322 17.031 6.33262C19.0734 4.01092 20.7622 1.36522 23.8867 0.434556C24.5778 0.228666 25.0957 0.152476 25.8027 0.00762597Z" fill="#00B0FF"/>
<path d="M6.91751 0.00985618C7.38255 -0.000943822 7.84775 -0.00285407 8.31285 0.00405593C11.929 0.0752559 15.4142 2.04052 15.3253 6.03732C13.8609 6.07832 12.2726 6.04282 10.7892 6.05852C10.422 5.26292 10.2117 4.86292 9.31895 4.53052C8.09085 4.07322 5.72645 4.13432 5.15264 5.52602C4.62352 6.80932 6.61812 7.10392 7.45185 7.30192C8.92645 7.65222 10.475 7.75112 11.9024 8.29022C12.3995 8.35882 13.0893 8.66382 13.5186 8.93072C13.1063 9.42752 11.1076 11.8627 10.7494 12.1181C10.7112 12.1202 9.53665 11.6106 9.17725 11.523C6.88399 10.9636 3.99494 10.8911 2.026 9.50592C0.95933 8.75552 0.48213 7.64972 0.2668 6.40662C0.0782398 5.31822 0.37257 3.67912 1.06596 2.80422C2.67037 0.779966 4.54237 0.346916 6.91751 0.00985618Z" fill="#00BCFF"/>
<path d="M22.1434 9.33691C22.3465 9.55801 22.3429 10.8093 22.5203 11.2452C22.7757 11.873 23.0799 12.3832 23.5513 12.8675C24.4121 13.7474 25.589 14.2471 26.8204 14.2555C28.6953 14.2778 29.5489 13.4502 30.785 12.2416C32.5195 12.2682 34.2543 12.2673 35.9888 12.2389C35.2988 14.2965 34.2871 15.9076 32.4997 17.2085C29.7033 19.3091 25.6094 19.5922 22.5511 17.9596C20.6157 16.9265 19.4259 15.6395 18.375 13.7574C18.7695 13.3272 19.082 12.8937 19.4541 12.455C20.3258 11.4272 21.296 10.3699 22.1434 9.33691Z" fill="#009EFF"/>
</svg>
