<svg width="109" height="31" viewBox="0 0 109 31" fill="none" xmlns="http://www.w3.org/2000/svg">
<path d="M56.8729 9.1066C57.346 9.10102 57.8568 9.08948 58.3283 9.10299C60.9178 9.19482 63.3635 10.3132 65.126 12.211C65.6401 12.7556 66.0216 13.339 66.3914 13.9826C67.6628 16.1954 67.4834 18.0129 67.411 20.467C62.8702 20.5244 58.2825 20.4397 53.7316 20.4818C54.0477 21.0987 54.168 21.6062 54.706 22.1413C55.9555 23.3856 58.0479 23.6385 59.6677 23.0661C60.103 22.9122 60.706 22.3926 61.1817 22.348C61.8064 22.2894 62.5296 22.3218 63.1613 22.3308C64.1426 22.3457 65.1239 22.3491 66.1052 22.3408L66.7884 22.3422C65.5554 25.163 62.9075 27.3796 59.8582 27.9435C57.3662 28.4275 54.7837 27.8995 52.6817 26.4761C50.5714 25.0324 49.129 22.803 48.6777 20.2877C47.8077 15.5641 50.6966 10.6995 55.36 9.39932C55.8442 9.26442 56.3758 9.19732 56.8729 9.1066ZM58.6684 16.5998C59.7364 16.5991 61.2961 16.5539 62.3285 16.6031C61.1982 14.6289 59.8056 13.7176 57.4896 13.8366C55.9762 14.1501 55.0689 14.5671 54.1882 15.9049C54.0402 16.1342 53.8976 16.367 53.7603 16.603L58.6684 16.5998Z" fill="#00B0FF"/>
<path d="M95.8019 9.10936C96.5182 9.09963 97.1637 9.08474 97.8757 9.14881C100.391 9.37512 102.878 10.6585 104.461 12.6464C106.388 15.068 106.627 17.4934 106.317 20.4645C104.793 20.4986 103.163 20.4715 101.631 20.4715L92.6963 20.4762C92.882 20.875 93.0512 21.207 93.1603 21.6345C93.3609 21.8 93.4998 21.959 93.6834 22.1453C94.9888 23.4677 97.1275 23.6478 98.8021 23.0026C99.1614 22.8641 99.5844 22.3945 100.029 22.3534C100.681 22.2932 101.369 22.3218 102.023 22.331C102.966 22.346 103.909 22.3495 104.852 22.3418L105.683 22.3356C105.499 22.9173 105.289 23.3041 104.948 23.8163C103.543 25.9338 101.356 27.4106 98.8655 27.9247C96.3628 28.4269 93.9106 27.951 91.7873 26.5802C85.4989 22.5195 86.3238 12.7709 93.181 9.79577C94.1613 9.37049 94.7871 9.30833 95.8019 9.10936ZM97.5692 16.6002C98.7308 16.5993 100.104 16.5666 101.251 16.6006C100.23 14.6424 98.6606 13.7312 96.4559 13.8365C94.5135 14.193 93.6674 14.9338 92.725 16.629C93.2332 16.5722 94.0181 16.5957 94.546 16.5964L97.5692 16.6002Z" fill="#00B0FF"/>
<path d="M28.7714 9.10821C31.3267 9.06727 33.2331 9.26576 35.37 10.8394C37.3311 12.2837 38.2978 13.7511 38.9921 16.0598C37.9241 16.0512 36.8561 16.0486 35.7881 16.0519C35.2026 16.0529 34.4569 16.0745 33.8912 16.0216C33.4627 15.4591 32.8392 14.8199 32.2265 14.447C30.4499 13.3656 27.9748 13.695 26.5689 15.2427C25.5656 16.3472 24.594 17.5232 23.6333 18.667L19.3044 23.7649C17.1427 26.3497 16.7875 27.1361 13.308 27.9373C8.79112 28.6832 3.18195 27.2297 2.96875 21.7967L7.59714 21.7942C7.75412 22.4773 7.81058 22.6714 8.41271 23.1252C9.39272 23.8636 11.8439 23.9865 12.8553 23.4384C13.6726 22.9955 15.1022 21.1037 15.8154 20.3022C17.2009 18.738 18.6269 16.9938 19.9997 15.4332C22.0421 13.1115 23.7309 10.4658 26.8554 9.53514C27.5465 9.32925 28.0644 9.25306 28.7714 9.10821Z" fill="#00B0FF"/>
<path d="M76.6034 9.10794C78.816 8.99516 81.2496 9.32792 82.9455 10.8842C85.8686 13.567 85.601 17.189 85.6207 20.7581C85.6329 22.9913 85.5371 25.6482 85.6627 27.8185C84.0348 27.8002 82.4065 27.8018 80.7786 27.8233C80.7339 25.4968 80.8047 23.1508 80.776 20.8226C80.7435 19.5412 80.8483 18.231 80.6764 16.9572C80.4497 15.2776 80.0246 14.3816 78.3541 13.8897C78.0971 13.8412 77.8364 13.8158 77.5745 13.8142C73.634 13.7793 74.2385 18.1885 74.2396 20.9067L74.2411 27.8328C73.2402 27.7573 72.1455 27.8315 71.1339 27.8058C70.5847 27.7919 69.9584 27.7968 69.4161 27.8367C69.3592 25.5792 69.4417 23.3197 69.4028 21.0424C69.3358 17.1374 69.1612 12.6093 72.9102 10.2072C74.0187 9.4968 75.3246 9.28522 76.6034 9.10794Z" fill="#00B1FF"/>
<path d="M9.88626 9.11044C10.3513 9.09964 10.8165 9.09773 11.2816 9.10464C14.8977 9.17584 18.383 11.1411 18.2941 15.1379C16.8297 15.1789 15.2413 15.1434 13.7579 15.1591C13.3907 14.3635 13.1805 13.9635 12.2877 13.6311C11.0596 13.1738 8.6952 13.2349 8.12139 14.6266C7.59227 15.9099 9.58687 16.2045 10.4206 16.4025C11.8952 16.7528 13.4437 16.8517 14.8711 17.3908C15.3682 17.4594 16.058 17.7644 16.4873 18.0313C16.075 18.5281 14.0764 20.9633 13.7182 21.2187C13.68 21.2208 12.5054 20.7112 12.146 20.6236C9.85274 20.0642 6.96369 19.9917 4.99475 18.6065C3.92808 17.8561 3.45088 16.7503 3.23555 15.5072C3.04699 14.4188 3.34132 12.7797 4.03471 11.9048C5.63912 9.88055 7.51112 9.4475 9.88626 9.11044Z" fill="#00BCFF"/>
<path d="M41.3445 9.35718C42.9772 9.36484 44.6098 9.36266 46.2425 9.35059C46.2239 11.7064 46.2193 14.0624 46.2286 16.4183L46.2363 27.8339C45.7959 27.7865 45.0114 27.8066 44.5415 27.8061L41.3474 27.817C41.2813 22.9586 41.3821 18.08 41.3387 13.2196C41.3272 11.9395 41.3213 10.6355 41.3445 9.35718Z" fill="#00B0FF"/>
<path d="M25.1122 18.4375C25.3153 18.6586 25.3117 19.9099 25.4891 20.3458C25.7445 20.9736 26.0486 21.4838 26.52 21.9681C27.3808 22.848 28.5578 23.3477 29.7892 23.3561C31.6641 23.3784 32.5177 22.5508 33.7538 21.3422C35.4883 21.3688 37.2231 21.3679 38.9576 21.3395C38.2676 23.3971 37.2559 25.0082 35.4685 26.3091C32.6721 28.4097 28.5782 28.6928 25.5199 27.0602C23.5845 26.0271 22.3947 24.7401 21.3438 22.858C21.7383 22.4278 22.0507 21.9943 22.4228 21.5556C23.2945 20.5278 24.2648 19.4705 25.1122 18.4375Z" fill="#009EFF"/>
<path d="M43.5119 1.71884C45.1108 1.58135 46.5169 2.769 46.6475 4.36729C46.778 5.96559 45.5832 7.36532 43.9831 7.48868C42.393 7.61125 41.0027 6.42644 40.873 4.83812C40.7433 3.24979 41.9229 1.85546 43.5119 1.71884Z" fill="#00CCFE"/>
</svg>
