<svg width="139" height="42" viewBox="0 0 139 42" fill="none" xmlns="http://www.w3.org/2000/svg">
<path d="M12.6933 13.3524H22.8464C24.5504 13.3524 26.0193 14.4818 26.4603 16.1244L27.2231 18.9683C27.3076 19.2834 27.5556 19.4702 27.8817 19.4702H31.04C31.2839 19.4702 31.4826 19.6687 31.4826 19.9123V22.0878C31.4826 22.3311 31.2839 22.5295 31.04 22.5295H21.0417L21.7275 25.0865C21.8121 25.4016 22.06 25.5884 22.3862 25.5884H31.0403C31.2839 25.5884 31.4826 25.7869 31.4826 26.0302V28.206C31.4826 28.4493 31.2839 28.6477 31.04 28.6477H12.6933C12.4501 28.6477 12.2514 28.4493 12.2514 28.2056V26.0302C12.2514 25.7869 12.4501 25.5881 12.6933 25.5881H18.6951L18.0095 23.0314C17.9246 22.7163 17.6767 22.5295 17.3506 22.5295H9.63058C9.38697 22.5295 9.18829 22.3311 9.18829 22.0878V19.912C9.18829 19.6687 9.38697 19.4702 9.63091 19.4702H24.1909L23.5047 16.9135C23.4202 16.5981 23.1722 16.4116 22.8464 16.4116H12.693C12.4494 16.4116 12.2507 16.2132 12.2507 15.9696V13.7941C12.2507 13.5508 12.4494 13.3524 12.6933 13.3524ZM8.746 16.4116H6.56781C6.3242 16.4116 6.12519 16.2132 6.12519 15.9696V13.7941C6.12519 13.5508 6.3242 13.352 6.56781 13.352H8.746C8.98961 13.352 9.18829 13.5508 9.18829 13.7941V15.9699C9.18829 16.2132 8.98961 16.4116 8.74566 16.4116H8.746ZM5.68323 22.5295H3.50506C3.26145 22.5295 3.06276 22.3311 3.06276 22.0878V19.912C3.06276 19.6687 3.26145 19.4702 3.50506 19.4702H5.68323C5.92684 19.4702 6.12553 19.6687 6.12553 19.9123V22.0878C6.12553 22.3311 5.92684 22.5295 5.6829 22.5295H5.68323ZM8.74633 28.6474H6.56815C6.32454 28.6474 6.12553 28.4489 6.12553 28.2056V26.0298C6.12553 25.7865 6.32454 25.5881 6.56815 25.5881H8.74633C8.98994 25.5881 9.18862 25.7865 9.18862 26.0302V28.2056C9.18862 28.4489 8.98994 28.6477 8.746 28.6477L8.74633 28.6474ZM2.62047 16.4116H0.44229C0.19868 16.4116 0 16.2132 0 15.9696V13.7941C0 13.5508 0.19868 13.352 0.44229 13.352H2.62047C2.86408 13.352 3.0631 13.5508 3.0631 13.7941V15.9699C3.0631 16.2132 2.86408 16.4116 2.62047 16.4116Z" fill="white"/>
<path d="M44.016 29V15.932H39.286V13.6H51.298V15.932H46.568V29H44.016ZM52.7558 29V13.6H58.1898C59.2458 13.6 60.1772 13.8053 60.9838 14.216C61.7905 14.6267 62.4212 15.1987 62.8758 15.932C63.3305 16.6507 63.5578 17.4867 63.5578 18.44C63.5578 19.3933 63.3158 20.2367 62.8318 20.97C62.3625 21.7033 61.7098 22.2827 60.8738 22.708C60.0378 23.1187 59.0918 23.324 58.0358 23.324H55.3078V29H52.7558ZM61.2918 29L57.6838 22.752L59.6638 21.388L64.1738 29H61.2918ZM55.3078 20.97H58.2998C58.7985 20.97 59.2385 20.86 59.6198 20.64C60.0158 20.42 60.3312 20.1193 60.5658 19.738C60.8152 19.3567 60.9398 18.924 60.9398 18.44C60.9398 17.7067 60.6758 17.1053 60.1478 16.636C59.6198 16.1667 58.9378 15.932 58.1018 15.932H55.3078V20.97ZM76.8596 29L70.8536 13.6H73.4056L79.5656 29H76.8596ZM64.5616 29L70.6996 13.6H73.2736L67.2676 29H64.5616ZM67.4436 25.216V22.95H76.6616V25.216H67.4436ZM82.4964 24.556L81.9904 21.608L89.5584 13.6H92.8364L82.4964 24.556ZM80.9124 29V13.6H83.4204V29H80.9124ZM89.9544 29L83.7504 21.168L85.5544 19.606L93.1004 29H89.9544ZM97.6006 29V15.932H92.8706V13.6H104.883V15.932H100.153V29H97.6006ZM106.34 29V13.6H108.892V29H106.34ZM116.751 29L122.779 13.6H125.507L119.281 29H116.751ZM116.487 29L110.261 13.6H112.967L118.995 29H116.487ZM126.87 29V13.6H136.352V15.932H129.422V20.024H135.538V22.312H129.422V26.668H136.418V29H126.87Z" fill="white"/>
</svg>
