<svg width="61" height="59" viewBox="0 0 61 59" fill="none" xmlns="http://www.w3.org/2000/svg">
<path d="M47.8182 5.53197V40.4725C47.8182 43.4271 45.4124 45.833 42.4517 45.833C39.4909 45.833 37.0852 43.4299 37.0852 40.4725V10.0381L23.9063 15.5701V40.4725C23.9063 43.4271 21.5005 45.833 18.5397 45.833C15.579 45.833 13.1732 43.4299 13.1732 40.4725V20.0762L0 25.6111V40.4753C0 50.6906 8.3187 59 18.5454 59C23.0967 59 27.2704 57.3513 30.5 54.6224C33.7296 57.3513 37.9033 59 42.4546 59C52.6813 59 61 50.6906 61 40.4753V0L47.8211 5.53197H47.8182Z" fill="black"/>
</svg>
